<?xml version="1.0" encoding="iso-8859-1"?>
<!-- Uploaded to: SVG Repo, www.svgrepo.com, Generator: SVG Repo Mixer Tools -->
<svg fill="#000000" height="800px" width="800px" version="1.1" id="Layer_1" xmlns="http://www.w3.org/2000/svg" xmlns:xlink="http://www.w3.org/1999/xlink" 
	 viewBox="0 0 469.335 469.335" xml:space="preserve">
<g>
	<g>
		<path d="M436.641,238.027c-8.949-5.877-19.083-12.533-21.291-17.867c-2.421-5.824,0.075-18.133,2.283-28.992
			c3.733-18.432,7.595-37.483-4.533-49.6c-12.107-12.107-31.168-8.256-49.589-4.533c-10.869,2.208-23.168,4.736-29.013,2.283
			c-5.323-2.208-11.979-12.341-17.856-21.291c-10.059-15.317-21.461-32.693-39.307-32.693V74.667c0-35.296-28.704-64-64-64
			c-8.085,0-15.797,1.568-22.923,4.32c-11.125-9.344-25.451-14.987-41.077-14.987c-35.296,0-64,28.704-64,64v10.667H32.001
			c-5.621,0-10.283,4.363-10.645,9.984L0.023,415.318c-0.192,2.944,0.843,5.835,2.859,7.979c2.027,2.155,4.843,3.371,7.787,3.371
			h138.667c4.096,0,7.531-2.379,9.323-5.76c9.952,1.237,21.333-1.013,32.512-3.285c10.859-2.197,23.189-4.715,29.013-2.283
			c5.323,2.208,11.979,12.341,17.856,21.291c10.048,15.328,21.451,32.704,39.296,32.704s29.248-17.376,39.307-32.693
			c5.877-8.949,12.533-19.083,17.867-21.291c5.803-2.443,18.133,0.075,28.992,2.283c18.421,3.723,37.483,7.595,49.6-4.533
			c12.128-12.117,8.267-31.168,4.533-49.589c-2.208-10.859-4.693-23.179-2.283-29.013c2.208-5.323,12.341-11.979,21.291-17.856
			c15.317-10.059,32.693-21.461,32.693-39.307S451.959,248.086,436.641,238.027z M213.335,32.001
			c23.531,0,42.667,19.136,42.667,42.667h-42.667V64.001c0-11.317-2.987-21.941-8.16-31.179
			C207.82,32.31,210.54,32.001,213.335,32.001z M185.868,42.294c3.808,6.379,6.133,13.749,6.133,21.707v10.667h-21.333
			C170.668,61.654,176.652,50.123,185.868,42.294z M106.668,64.001c0-23.531,19.136-42.667,42.667-42.667
			c7.755,0,14.944,2.24,21.216,5.867c-12.992,11.723-21.216,28.629-21.216,47.467h-42.667V64.001z M137.036,363.499
			c-3.019,14.891-5.963,30.123-0.651,41.845H22.039L41.996,96.001h43.339v10.667c0,5.899,4.768,10.667,10.667,10.667
			c5.899,0,10.667-4.768,10.667-10.667V96.001h85.333v10.667c0,5.899,4.768,10.667,10.667,10.667s10.667-4.768,10.667-10.667V96.001
			H254.7c-6.315,6.251-11.659,14.389-16.672,22.027c-5.877,8.949-12.533,19.083-17.867,21.291
			c-5.803,2.453-18.144-0.085-28.992-2.283c-18.421-3.723-37.483-7.584-49.6,4.533c-12.128,12.117-8.256,31.168-4.533,49.589
			c2.208,10.859,4.693,23.179,2.283,29.013c-2.208,5.323-12.341,11.979-21.291,17.856c-15.317,10.059-32.693,21.461-32.693,39.307
			s17.376,29.248,32.693,39.307c8.949,5.877,19.083,12.533,21.291,17.867C141.74,340.331,139.244,352.641,137.036,363.499z
			 M424.929,298.806c-12.085,7.925-24.576,16.128-29.291,27.509c-4.917,11.851-1.877,26.891,1.077,41.429
			c2.251,11.072,5.323,26.251,1.301,30.272c-4,4.021-19.2,0.96-30.283-1.301c-14.517-2.933-29.557-5.995-41.408-1.077
			c-11.392,4.715-19.595,17.205-27.52,29.291c-6.741,10.283-15.147,23.072-21.472,23.072c-6.325,0-14.731-12.789-21.472-23.072
			c-7.925-12.085-16.128-24.576-27.509-29.291c-4.544-1.888-9.557-2.592-14.827-2.592c-8.48,0-17.632,1.856-26.603,3.669
			c-11.083,2.261-26.272,5.312-30.272,1.301c-4.021-4.021-0.949-19.2,1.301-30.283c2.944-14.528,5.995-29.568,1.077-41.408
			c-4.715-11.392-17.205-19.595-29.291-27.52c-10.283-6.741-23.072-15.147-23.072-21.472c0-6.325,12.789-14.731,23.072-21.472
			c12.085-7.925,24.576-16.128,29.291-27.509c4.917-11.851,1.877-26.891-1.077-41.429c-2.251-11.072-5.323-26.251-1.301-30.272
			c4.021-4.011,19.211-0.949,30.283,1.301c14.528,2.933,29.568,5.995,41.408,1.077c11.392-4.715,19.595-17.205,27.52-29.291
			c6.741-10.283,15.147-23.072,21.472-23.072c6.325,0,14.731,12.789,21.472,23.072c7.925,12.085,16.128,24.576,27.509,29.291
			c11.84,4.917,26.891,1.867,41.429-1.077c11.083-2.251,26.261-5.301,30.272-1.301c4.021,4.021,0.949,19.2-1.301,30.283
			c-2.944,14.528-5.995,29.557-1.077,41.408c4.715,11.392,17.205,19.595,29.291,27.52c10.283,6.741,23.072,15.147,23.072,21.472
			C448.001,283.659,435.212,292.065,424.929,298.806z"/>
	</g>
</g>
<g>
	<g>
		<path d="M213.335,197.334c-23.531,0-42.667,23.925-42.667,53.333s19.136,53.333,42.667,53.333
			c23.531,0,42.667-23.925,42.667-53.333S236.865,197.334,213.335,197.334z M213.335,282.667c-11.563,0-21.333-14.656-21.333-32
			s9.771-32,21.333-32c11.563,0,21.333,14.656,21.333,32S224.897,282.667,213.335,282.667z"/>
	</g>
</g>
<g>
	<g>
		<path d="M341.335,250.667c-23.531,0-42.667,23.925-42.667,53.333c0,29.408,19.136,53.333,42.667,53.333
			s42.667-23.925,42.667-53.333C384.001,274.593,364.865,250.667,341.335,250.667z M341.335,336.001
			c-11.563,0-21.333-14.656-21.333-32c0-17.344,9.771-32,21.333-32s21.333,14.656,21.333,32
			C362.668,321.345,352.897,336.001,341.335,336.001z"/>
	</g>
</g>
<g>
	<g>
		<path d="M313.804,198.315c-5.355-2.464-11.691-0.139-14.155,5.216l-64,138.667c-2.464,5.344-0.139,11.691,5.216,14.155
			c1.451,0.661,2.965,0.981,4.459,0.981c4.032,0,7.893-2.293,9.696-6.197l64-138.667
			C321.495,207.126,319.159,200.779,313.804,198.315z"/>
	</g>
</g>
</svg>